<?xml version="1.0" encoding="UTF-8"?>
<svg version="1.1" xmlns="http://www.w3.org/2000/svg" width="128" height="128">
<path d="M0 0 C7.17643714 4.21942659 10.92531371 10.46006577 14 18 C15.6396875 17.7525 15.6396875 17.7525 17.3125 17.5 C25.74486355 16.500056 33.8775567 15.55737823 41 21 C44.63370913 24.88488718 44.44178649 28.069276 44.28515625 33.18359375 C43.56896559 40.25720287 40.75852535 44.85564827 36 50 C34.02 49.505 34.02 49.505 32 49 C32.61587478 46.06973262 33.57193084 43.83579023 35.0625 41.25 C37.28976146 36.88522022 37.65996027 33.86720701 37 29 C34.47621503 26.13797581 32.95945416 25.99694685 29.109375 25.70703125 C27.65595991 25.72685055 26.20268833 25.76245155 24.75 25.8125 C23.63238281 25.83280273 23.63238281 25.83280273 22.4921875 25.85351562 C20.66114584 25.88872796 18.83047831 25.94253149 17 26 C17.27714844 27.05058594 17.55429688 28.10117187 17.83984375 29.18359375 C21.70610921 44.06162169 21.70610921 44.06162169 22 51 C22.05994141 52.25103516 22.05994141 52.25103516 22.12109375 53.52734375 C22.2995991 60.84606304 21.23878395 67.80370547 20 75 C19.78534028 76.43656891 19.57553335 77.87389116 19.375 79.3125 C19.189375 80.6428125 19.189375 80.6428125 19 82 C25.15229943 84.05076648 31.09965659 83.36013736 37 81 C38.53870626 74.60845094 37.67970307 71.13726451 34.55078125 65.390625 C32.66459306 62.4829495 30.44539062 60.07067562 28.09375 57.5390625 C27 56 27 56 27.125 53.0625 C27.41375 52.381875 27.7025 51.70125 28 51 C31.38175997 51.29225086 32.79358985 51.80820912 35.31640625 54.15234375 C40.98997695 61.18757142 45.79105022 67.96082164 46.625 77.1875 C45.79640524 82.24192803 44.01848986 84.86806357 40 88 C32.25902048 92.15801186 23.39159549 91.76665168 15 90 C14.79375 90.825 14.5875 91.65 14.375 92.5 C11.52424384 99.75647022 6.55819462 105.6009502 -0.375 109.25 C-5.16279596 110.6179417 -8.63065899 110.6846705 -13.125 108.4375 C-17.75002715 104.51628133 -21.2527644 99.87706521 -23 94 C-23 92.68 -23 91.36 -23 90 C-24.258125 90.165 -25.51625 90.33 -26.8125 90.5 C-35.4246077 91.42079139 -43.11433524 92.01200488 -51 88 C-55.3055681 83.58403271 -56.4729141 79.5615428 -56.4140625 73.5390625 C-55.24893873 66.39443563 -49.70508467 60.25862404 -45 55 C-46.42766471 51.22737876 -48.16521789 47.74432125 -50.0625 44.1875 C-53.41477259 37.46652212 -54.96703981 32.68702014 -52.875 25.25 C-51.34481693 21.26328986 -49.8233182 19.12406567 -46 17 C-40.06224604 14.92178611 -35.16285785 14.7341848 -29 16 C-28.34 16.33 -27.68 16.66 -27 17 C-27.33 18.65 -27.66 20.3 -28 22 C-29.22976562 22.07347656 -29.22976562 22.07347656 -30.484375 22.1484375 C-31.56203125 22.22320312 -32.6396875 22.29796875 -33.75 22.375 C-34.81734375 22.44460937 -35.8846875 22.51421875 -36.984375 22.5859375 C-39.82762031 22.97633129 -41.61137097 23.44850731 -44 25 C-45.66187489 28.32374979 -45.61851763 31.42262778 -45 35 C-43.26012569 39.14932124 -41.19726771 43.07630765 -39 47 C-36.04429311 45.66412374 -33.96105338 44.1731348 -31.625 41.9375 C-22.94094053 34.19138363 -12.75228418 28.35336384 -2 24 C-0.70255859 23.44119141 -0.70255859 23.44119141 0.62109375 22.87109375 C3 22 3 22 6 22 C5.2368139 20.39218107 4.46412942 18.78886862 3.6875 17.1875 C3.25824219 16.29417969 2.82898438 15.40085937 2.38671875 14.48046875 C1.09347247 12.16719724 0.07722541 10.62496874 -2 9 C-6.12443352 8.38897281 -8.15829868 8.38412099 -11.5625 10.875 C-14.29541088 14.3787319 -16.49726454 18.01886762 -18.66796875 21.890625 C-20 24 -20 24 -22 25 C-22.66 24.67 -23.32 24.34 -24 24 C-23.69783906 15.99273508 -20.73133403 9.22277803 -15.3984375 3.1875 C-10.84922278 -0.60710565 -5.70288417 -1.48884457 0 0 Z M-33 53 C-27.97839402 65.27810252 -8.64272582 73.13924919 2.8125 78.0625 C5.86746358 79.31398163 7.68682639 80 11 80 C14.11305188 62.44896319 15.37949632 46.25498821 10 29 C-4.12844288 29 -22.69702417 44.523213 -33 53 Z M-39 60 C-40.17967657 61.21811215 -41.31889245 62.4755781 -42.4375 63.75 C-43.05496094 64.44609375 -43.67242187 65.1421875 -44.30859375 65.859375 C-47.77038973 70.24058562 -48.50293381 73.36714137 -48 79 C-46.9808374 81.29506264 -46.9808374 81.29506264 -45 83 C-35.10390714 84.67350705 -25.34086594 82.11362198 -16 79 C-16 78.34 -16 77.68 -16 77 C-17.95145235 75.54621324 -19.90211313 74.20170625 -21.9375 72.875 C-27.12543341 69.40761272 -31.82493394 65.70768046 -36.390625 61.43359375 C-37.76523634 59.88914151 -37.76523634 59.88914151 -39 60 Z M-14.1875 85.5 C-14.84169922 85.73847656 -15.49589844 85.97695312 -16.16992188 86.22265625 C-17.7815147 86.81082881 -19.39097067 87.40485044 -21 88 C-16.28656918 95.67513965 -16.28656918 95.67513965 -10 102 C-6.18963152 102.72964503 -4.41718942 102.20433767 -0.9375 100.5 C2.61346832 97.4778993 5.03564843 94.23291688 7 90 C7 89.01 7 88.02 7 87 C5.23141309 86.32739649 3.46003984 85.66211605 1.6875 85 C0.70136719 84.62875 -0.28476563 84.2575 -1.30078125 83.875 C-6.16818983 82.29714252 -9.60111806 83.79793248 -14.1875 85.5 Z " fill="#9648E5" transform="translate(71,10)"/>
<path d="M0 0 C5.39578657 3.38379836 9.99449025 7.84977009 12 14 C12.1875 17.375 12.1875 17.375 12 20 C12.66 20 13.32 20 14 20 C13.5 22.75 13.5 22.75 12 26 C10.05381455 27.27363757 8.12318803 28.16265761 5.97265625 29.04296875 C3.96489671 29.87065917 3.96489671 29.87065917 2.70703125 31.38671875 C0.0900458 33.8599796 -3.14659196 35.11495039 -6.375 36.625 C-15.68402457 41.11517301 -23.75811711 46.77934077 -32 53 C-30.49282074 56.80626627 -28.28410963 58.60726446 -25.0625 61.0625 C-22.20626254 63.25410488 -19.47391618 65.3791185 -17 68 C-17.598125 67.79375 -18.19625 67.5875 -18.8125 67.375 C-21.28450846 66.69328085 -21.28450846 66.69328085 -24 69 C-23.34 69 -22.68 69 -22 69 C-21.67 69.99 -21.34 70.98 -21 72 C-20.01 72.495 -20.01 72.495 -19 73 C-18.01 73.495 -18.01 73.495 -17 74 C-16.67 74.99 -16.34 75.98 -16 77 C-19.89962804 75.64240303 -22.64825645 73.88772161 -25.8125 71.25 C-30.12344557 67.70817366 -34.51010906 64.31098103 -39 61 C-39.96355244 62.07869393 -40.92061417 63.16318743 -41.875 64.25 C-42.40867187 64.85328125 -42.94234375 65.4565625 -43.4921875 66.078125 C-47.1123031 70.69236561 -47.25749856 74.48121638 -47.125 80.25 C-47.11146484 81.36761719 -47.11146484 81.36761719 -47.09765625 82.5078125 C-47.07418358 84.33868059 -47.03831525 86.16938238 -47 88 C-45.68 88.66 -44.36 89.32 -43 90 C-47.86045979 89.54786421 -50.53141261 88.46858739 -54 85 C-56.57545181 80.70758032 -56.88359842 75.85594956 -56 71 C-53.30243477 65.00942037 -49.35958262 59.87247469 -45 55 C-46.42766471 51.22737876 -48.16521789 47.74432125 -50.0625 44.1875 C-53.41477259 37.46652212 -54.96703981 32.68702014 -52.875 25.25 C-51.34481693 21.26328986 -49.8233182 19.12406567 -46 17 C-40.06224604 14.92178611 -35.16285785 14.7341848 -29 16 C-28.34 16.33 -27.68 16.66 -27 17 C-27.33 18.65 -27.66 20.3 -28 22 C-29.22976562 22.07347656 -29.22976562 22.07347656 -30.484375 22.1484375 C-31.56203125 22.22320312 -32.6396875 22.29796875 -33.75 22.375 C-34.81734375 22.44460937 -35.8846875 22.51421875 -36.984375 22.5859375 C-39.82762031 22.97633129 -41.61137097 23.44850731 -44 25 C-45.66187489 28.32374979 -45.61851763 31.42262778 -45 35 C-43.26012569 39.14932124 -41.19726771 43.07630765 -39 47 C-36.04429311 45.66412374 -33.96105338 44.1731348 -31.625 41.9375 C-22.94094053 34.19138363 -12.75228418 28.35336384 -2 24 C-0.70255859 23.44119141 -0.70255859 23.44119141 0.62109375 22.87109375 C3 22 3 22 6 22 C5.2368139 20.39218107 4.46412942 18.78886862 3.6875 17.1875 C3.25824219 16.29417969 2.82898438 15.40085937 2.38671875 14.48046875 C1.09347247 12.16719724 0.07722541 10.62496874 -2 9 C-6.12443352 8.38897281 -8.15829868 8.38412099 -11.5625 10.875 C-14.29541088 14.3787319 -16.49726454 18.01886762 -18.66796875 21.890625 C-20 24 -20 24 -22 25 C-22.66 24.67 -23.32 24.34 -24 24 C-23.69783906 15.99273508 -20.73133403 9.22277803 -15.3984375 3.1875 C-10.86195169 -0.59648817 -5.68683733 -1.5147588 0 0 Z " fill="#5636EA" transform="translate(71,10)"/>
<path d="M0 0 C6.70212766 1.93617021 6.70212766 1.93617021 9 5 C9 5.66 9 6.32 9 7 C9.56203125 7.12246094 10.1240625 7.24492188 10.703125 7.37109375 C13.18986519 8.0519869 15.40514776 8.99352325 17.75 10.0625 C18.54921875 10.42472656 19.3484375 10.78695312 20.171875 11.16015625 C20.77515625 11.43730469 21.3784375 11.71445313 22 12 C21.625 14.3125 21.625 14.3125 20 17 C17.5786358 18.02493974 15.16852236 18.66156907 12.62109375 19.30859375 C9.22089802 20.20551572 6.19372982 21.54199291 3 23 C3.42152344 23.60328125 3.84304687 24.2065625 4.27734375 24.828125 C4.82519531 25.62734375 5.37304688 26.4265625 5.9375 27.25 C6.48277344 28.03890625 7.02804688 28.8278125 7.58984375 29.640625 C8.89622441 31.82636993 9.54980511 33.5153801 10 36 C15.07081218 36.36076925 18.87602359 36.5619882 23.5 34.25 C25.78251966 32.19573231 26.97893505 30.85898185 28 28 C28.495 30.97 28.495 30.97 29 34 C28.34 34 27.68 34 27 34 C26.8453125 35.175625 26.8453125 35.175625 26.6875 36.375 C26 39 26 39 23 41 C16.95025498 42.38782519 11.20471221 42.78671395 5.7265625 39.57421875 C2.30968464 36.45883012 0.44565372 32.33696117 -1 28 C-1 26.68 -1 25.36 -1 24 C-2.8871875 24.2475 -2.8871875 24.2475 -4.8125 24.5 C-10.2144509 25.11073012 -15.57060338 25.09133564 -21 25 C-21 24.34 -21 23.68 -21 23 C-22.32 22.67 -23.64 22.34 -25 22 C-25.625 19.625 -25.625 19.625 -26 17 C-25.34 16.34 -24.68 15.68 -24 15 C-23.67 15.33 -23.34 15.66 -23 16 C-14.77733913 16.60995487 -7.33026752 15.96662758 0.57421875 13.65625 C3 13 3 13 6 13 C5.89386164 10.54775306 5.89386164 10.54775306 5 8 C2.52363988 6.62533375 2.52363988 6.62533375 0 6 C0 5.01 0 4.02 0 3 C-0.66 3 -1.32 3 -2 3 C-1 1 -1 1 0 0 Z " fill="#963DF9" transform="translate(49,76)"/>
<path d="M0 0 C5.39578657 3.38379836 9.99449025 7.84977009 12 14 C12.1875 17.375 12.1875 17.375 12 20 C12.66 20 13.32 20 14 20 C13.5 22.75 13.5 22.75 12 26 C10.05381455 27.27363757 8.12318803 28.16265761 5.97265625 29.04296875 C3.82516116 30.0848228 2.66702409 31.31556574 1 33 C-2.63482388 35.21836674 -5.90607498 35.38337643 -10.07421875 35.65625 C-10.70972656 35.7696875 -11.34523438 35.883125 -12 36 C-12.33 36.66 -12.66 37.32 -13 38 C-14 37 -14 37 -14.0625 34.4375 C-14.041875 33.633125 -14.02125 32.82875 -14 32 C-12.88625 31.87625 -12.88625 31.87625 -11.75 31.75 C-8.38357284 30.8318835 -7.41955158 29.48868162 -5 27 C1.98863636 22 1.98863636 22 6 22 C5.2368139 20.39218107 4.46412942 18.78886862 3.6875 17.1875 C3.25824219 16.29417969 2.82898438 15.40085937 2.38671875 14.48046875 C1.09347247 12.16719724 0.07722541 10.62496874 -2 9 C-6.12443352 8.38897281 -8.15829868 8.38412099 -11.5625 10.875 C-14.29541088 14.3787319 -16.49726454 18.01886762 -18.66796875 21.890625 C-20 24 -20 24 -22 25 C-22.66 24.67 -23.32 24.34 -24 24 C-23.69783906 15.99273508 -20.73133403 9.22277803 -15.3984375 3.1875 C-10.86195169 -0.59648817 -5.68683733 -1.5147588 0 0 Z " fill="#723EED" transform="translate(71,10)"/>
<path d="M0 0 C2.96948054 3.04562107 4.82974985 5.50179866 5.3125 9.75 C4.9118895 13.91634919 3.68927657 15.81533038 1 19 C-1.73505979 20.98913439 -3.59289578 22.06519402 -7.0234375 21.90625 C-10.85339606 21.16588626 -12.66420694 20.34440314 -15.4375 17.5 C-18.05888394 13.3057857 -18.17612588 11.11606068 -17.57421875 6.26171875 C-16.68201844 2.74754204 -14.85163672 1.12214826 -12 -1 C-7.71073185 -2.48508266 -4.11665257 -1.74133558 0 0 Z " fill="#883EF8" transform="translate(73,55)"/>
<path d="M0 0 C0.99 0.33 1.98 0.66 3 1 C4.35384615 7.4 4.35384615 7.4 2.5625 10.4375 C2.046875 10.953125 1.53125 11.46875 1 12 C2.65 12.33 4.3 12.66 6 13 C6.33 12.01 6.66 11.02 7 10 C8.65 10 10.3 10 12 10 C12.33 9.34 12.66 8.68 13 8 C13.7425 8.45375 14.485 8.9075 15.25 9.375 C17.82205699 10.95038429 17.82205699 10.95038429 19.90625 11.90625 C22.21941232 13.11461838 24.18004865 14.5380373 26.25 16.125 C26.95640625 16.66382812 27.6628125 17.20265625 28.390625 17.7578125 C28.92171875 18.16773437 29.4528125 18.57765625 30 19 C28 20 28 20 25 20 C24.94729537 21.36893239 24.94729537 21.36893239 26 24 C26.66 24.33 27.32 24.66 28 25 C28.66 25.33 29.32 25.66 30 26 C30.495 27.485 30.495 27.485 31 29 C27.10037196 27.64240303 24.35174355 25.88772161 21.1875 23.25 C16.87655443 19.70817366 12.48989094 16.31098103 8 13 C7.03644756 14.07869393 6.07938583 15.16318743 5.125 16.25 C4.59132813 16.85328125 4.05765625 17.4565625 3.5078125 18.078125 C-0.1123031 22.69236561 -0.25749856 26.48121638 -0.125 32.25 C-0.11146484 33.36761719 -0.11146484 33.36761719 -0.09765625 34.5078125 C-0.07418358 36.33868059 -0.03831525 38.16938238 0 40 C1.32 40.66 2.64 41.32 4 42 C-0.86045979 41.54786421 -3.53141261 40.46858739 -7 37 C-9.57545181 32.70758032 -9.88359842 27.85594956 -9 23 C-6.74936519 18.00193474 -3.7969876 13.74546787 0 9.8125 C0.66 8.884375 1.32 7.95625 2 7 C1.46780909 3.17352608 1.46780909 3.17352608 0 0 Z " fill="#5E3DDA" transform="translate(24,58)"/>
<path d="M0 0 C-0.33 1.65 -0.66 3.3 -1 5 C-2.22976562 5.07347656 -2.22976562 5.07347656 -3.484375 5.1484375 C-4.56203125 5.22320312 -5.6396875 5.29796875 -6.75 5.375 C-8.35101563 5.47941406 -8.35101563 5.47941406 -9.984375 5.5859375 C-12.82762031 5.97633129 -14.61137097 6.44850731 -17 8 C-18.91902583 11.83805167 -18.51868144 16.30067353 -17.29296875 20.31640625 C-16.72938169 21.83731928 -16.16558479 23.35815457 -15.6015625 24.87890625 C-14.7725865 27.80185408 -15.18526726 30.11140209 -16 33 C-19.15032632 31.92602512 -21.39818063 30.92241474 -23.25390625 28.078125 C-26.38427233 21.37844852 -27.93926814 15.46904057 -25.875 8.25 C-24.34481693 4.26328986 -22.8233182 2.12406567 -19 0 C-12.83176628 -2.1588818 -6.06980968 -3.03490484 0 0 Z " fill="#3E36D3" transform="translate(44,27)"/>
<path d="M0 0 C3.38175997 0.29225086 4.79358985 0.80820912 7.31640625 3.15234375 C12.98997695 10.18757142 17.79105022 16.96082164 18.625 26.1875 C17.79640524 31.24192803 16.01848986 33.86806357 12 37 C4.71864644 40.91112706 -4.10334493 41.10577468 -12 39 C-12 38.67 -12 38.34 -12 38 C-5.78675502 37.26969092 -0.15901243 36.76819751 6 38 C5.34 36.02 4.68 34.04 4 32 C5.65 31.34 7.3 30.68 9 30 C10.53870626 23.60845094 9.67970307 20.13726451 6.55078125 14.390625 C4.66459306 11.4829495 2.44539062 9.07067562 0.09375 6.5390625 C-1 5 -1 5 -0.875 2.0625 C-0.441875 1.0415625 -0.441875 1.0415625 0 0 Z " fill="#CA50DC" transform="translate(99,61)"/>
<path d="M0 0 C1.32 0.33 2.64 0.66 4 1 C5.3191322 9.72747289 6.41670109 18.15518325 6 27 C5.97035156 27.91007812 5.94070312 28.82015625 5.91015625 29.7578125 C5.51259191 36.40974265 5.51259191 36.40974265 2.9375 39.375 C2.298125 39.91125 1.65875 40.4475 1 41 C1 42.32 1 43.64 1 45 C-0.32 44.67 -1.64 44.34 -3 44 C-2.67 43.01 -2.34 42.02 -2 41 C-1.96079185 39.00038436 -1.95556653 36.99950636 -2 35 C-2.66 34.67 -3.32 34.34 -4 34 C-3.89171875 32.58460937 -3.89171875 32.58460937 -3.78125 31.140625 C-3.6884375 29.85671875 -3.595625 28.5728125 -3.5 27.25 C-3.45085449 26.57130859 -3.40170898 25.89261719 -3.35107422 25.19335938 C-3.06515837 20.94148188 -3.00596089 16.7637644 -3.125 12.5 C-3.19202275 7.54031669 -2.36745392 4.34033219 0 0 Z " fill="#A64AE2" transform="translate(87,45)"/>
<path d="M0 0 C2.625 2 2.625 2 4 4 C1.03 3.01 -1.94 2.02 -5 1 C-5 2.32 -5 3.64 -5 5 C-2.69 6.32 -0.38 7.64 2 9 C2 9.66 2 10.32 2 11 C2.66 11 3.32 11 4 11 C3.67 12.32 3.34 13.64 3 15 C2.319375 14.01 1.63875 13.02 0.9375 12 C-1.31898893 9.30883332 -1.83203927 9.03299229 -5.5 8.3125 C-10.03385781 9.20307921 -11.15966636 10.35854662 -14 14 C-15.61781978 16.59978004 -17.17049308 19.21966575 -18.66796875 21.890625 C-20 24 -20 24 -22 25 C-22.66 24.67 -23.32 24.34 -24 24 C-23.69783906 15.99273508 -20.73133403 9.22277803 -15.3984375 3.1875 C-10.84562206 -0.61010909 -5.73520898 -1.12709324 0 0 Z " fill="#4735D2" transform="translate(71,10)"/>
<path d="M0 0 C9.56756757 0.95675676 9.56756757 0.95675676 12 3 C12.75 6.125 12.75 6.125 13 9 C14.98 8.34 16.96 7.68 19 7 C17.13070496 14.47718015 12.39714302 20.73523799 6 25 C1.9402391 27.13671626 -1.44111987 27.47988212 -6 27 C-9.4375 25 -9.4375 25 -12 23 C-11.34 22.67 -10.68 22.34 -10 22 C-9.41347656 22.31453125 -8.82695313 22.6290625 -8.22265625 22.953125 C-5.38412121 24.29007999 -3.53894749 24.07069389 -0.4375 23.75 C0.51253906 23.66234375 1.46257812 23.5746875 2.44140625 23.484375 C5.22932259 23.12896597 5.22932259 23.12896597 8 21 C9.20450304 18.44816596 9.20450304 18.44816596 10 16 C7.72669592 15.79176832 7.72669592 15.79176832 5.5 18 C1.86821328 20.52606947 -1.51462375 20.44012936 -5.828125 20.43359375 C-6.54484375 20.29050781 -7.2615625 20.14742187 -8 20 C-8.66 19.01 -9.32 18.02 -10 17 C-9.33613281 17.10699219 -8.67226563 17.21398437 -7.98828125 17.32421875 C-2.52390982 18.08846651 -2.52390982 18.08846651 2.8125 17.0625 C6.67842203 13.4174878 9.32382287 9.0285314 11 4 C10.37351562 3.87882812 9.74703125 3.75765625 9.1015625 3.6328125 C8.28429687 3.46523437 7.46703125 3.29765625 6.625 3.125 C5.81289062 2.96257812 5.00078125 2.80015625 4.1640625 2.6328125 C2 2 2 2 0 0 Z " fill="#A84CDA" transform="translate(67,93)"/>
<path d="M0 0 C3.16115776 1.36983503 3.9927092 1.9890638 6 5 C6.93357367 12.50496232 6.16469727 19.60144755 1.6875 25.82421875 C0.5095975 27.25978742 -0.73904414 28.63680448 -2 30 C-3.32 29.67 -4.64 29.34 -6 29 C-5.38412522 26.06973262 -4.42806916 23.83579023 -2.9375 21.25 C-0.70572955 16.86820894 -0.34826458 13.88801566 -1 9 C-2.83341465 6.49479421 -2.83341465 6.49479421 -5 5 C-3.35 4.67 -1.7 4.34 0 4 C0 3.01 0 2.02 0 1 C0 0.67 0 0.34 0 0 Z " fill="#B34AE2" transform="translate(109,30)"/>
<path d="M0 0 C6.70212766 1.93617021 6.70212766 1.93617021 9 5 C9 5.66 9 6.32 9 7 C9.56203125 7.12246094 10.1240625 7.24492188 10.703125 7.37109375 C13.18986519 8.0519869 15.40514776 8.99352325 17.75 10.0625 C18.54921875 10.42472656 19.3484375 10.78695312 20.171875 11.16015625 C20.77515625 11.43730469 21.3784375 11.71445313 22 12 C21.34 13.65 20.68 15.3 20 17 C19.34 17 18.68 17 18 17 C18 16.34 18 15.68 18 15 C16.35 15.33 14.7 15.66 13 16 C11 13 11 13 11 12 C10.01 12.33 9.02 12.66 8 13 C8 12.34 8 11.68 8 11 C7.01 10.67 6.02 10.34 5 10 C5 9.34 5 8.68 5 8 C2.525 7.01 2.525 7.01 0 6 C0 5.01 0 4.02 0 3 C-0.66 3 -1.32 3 -2 3 C-1 1 -1 1 0 0 Z " fill="#9F40F8" transform="translate(49,76)"/>
<path d="M0 0 C2 1 4 2 6 3 C6.639375 3.2990625 7.27875 3.598125 7.9375 3.90625 C10.2300288 5.12198497 12.19163993 6.54692394 14.25 8.125 C14.95640625 8.66382812 15.6628125 9.20265625 16.390625 9.7578125 C16.92171875 10.16773437 17.4528125 10.57765625 18 11 C16 12 16 12 13 12 C12.94729537 13.36893239 12.94729537 13.36893239 14 16 C14.66 16.33 15.32 16.66 16 17 C16.66 17.33 17.32 17.66 18 18 C18.33 18.99 18.66 19.98 19 21 C12.00827531 18.53601115 5.24462604 13.67163748 1.375 7.25 C0 4 0 4 0 0 Z " fill="#7038F5" transform="translate(36,66)"/>
<path d="M0 0 C2.96948054 3.04562107 4.82974985 5.50179866 5.3125 9.75 C4.92005677 13.83140958 3.56651766 15.84684973 1 19 C0.01 19.33 -0.98 19.66 -2 20 C-2 19.01 -2 18.02 -2 17 C-1.34 17 -0.68 17 0 17 C0 16.01 0 15.02 0 14 C0.99 14 1.98 14 3 14 C2.38977709 8.20987067 2.38977709 8.20987067 0 3 C-2.84083641 1.57958179 -4.85477278 1.68547728 -8 2 C-10.41859197 3.75065833 -10.41859197 3.75065833 -12 6 C-12 6.66 -12 7.32 -12 8 C-13.5 9.625 -13.5 9.625 -15 11 C-14.67 11.66 -14.34 12.32 -14 13 C-14.9375 15.125 -14.9375 15.125 -16 17 C-18.24725934 13.1438079 -18.20909909 10.52512675 -17.609375 6.19140625 C-16.65050227 2.7431524 -14.8174758 1.09672618 -12 -1 C-7.71073185 -2.48508266 -4.11665257 -1.74133558 0 0 Z " fill="#7137F5" transform="translate(73,55)"/>
<path d="M0 0 C-0.86625 0.50660156 -0.86625 0.50660156 -1.75 1.0234375 C-2.4925 1.46945313 -3.235 1.91546875 -4 2.375 C-4.7425 2.81585938 -5.485 3.25671875 -6.25 3.7109375 C-6.8275 4.13632812 -7.405 4.56171875 -8 5 C-8 5.66 -8 6.32 -8 7 C-9.98 7 -11.96 7 -14 7 C-13.67 7.99 -13.34 8.98 -13 10 C-10.69 10 -8.38 10 -6 10 C-9.58484484 13.00621497 -13.25255049 15.43002885 -17.3125 17.75 C-18.91544922 18.67039062 -18.91544922 18.67039062 -20.55078125 19.609375 C-21.35902344 20.06828125 -22.16726562 20.5271875 -23 21 C-23.33 20.01 -23.66 19.02 -24 18 C-22.35 17.34 -20.7 16.68 -19 16 C-19 15.01 -19 14.02 -19 13 C-19.99 12.67 -20.98 12.34 -22 12 C-22 12.66 -22 13.32 -22 14 C-23.98 14.33 -25.96 14.66 -28 15 C-23.51257457 10.13228428 -6.90621469 -3.45310735 0 0 Z " fill="#5F3AE2" transform="translate(71,35)"/>
<path d="M0 0 C0.33 0 0.66 0 1 0 C1.33 1.98 1.66 3.96 2 6 C1.34 6 0.68 6 0 6 C-0.103125 6.78375 -0.20625 7.5675 -0.3125 8.375 C-1 11 -1 11 -4 13 C-9.24781006 14.09569661 -13.65217363 14.52542384 -18.6875 12.5625 C-19.450625 12.046875 -20.21375 11.53125 -21 11 C-21 9.68 -21 8.36 -21 7 C-21.66 7 -22.32 7 -23 7 C-23 6.01 -23 5.02 -23 4 C-21.35 4 -19.7 4 -18 4 C-17.67 5.32 -17.34 6.64 -17 8 C-11.90363007 8.36258758 -8.09957107 8.54014017 -3.4375 6.25 C-1.0607744 4.05609944 -0.22652499 3.17134992 0 0 Z " fill="#B143F5" transform="translate(76,104)"/>
<path d="M0 0 C0.66 0.33 1.32 0.66 2 1 C3.52148326 1.08372659 5.04655778 1.10730027 6.5703125 1.09765625 C7.91416016 1.09282227 7.91416016 1.09282227 9.28515625 1.08789062 C10.69087891 1.07532227 10.69087891 1.07532227 12.125 1.0625 C13.54232422 1.05573242 13.54232422 1.05573242 14.98828125 1.04882812 C17.32558387 1.03702357 19.66276061 1.02055759 22 1 C21.67 1.66 21.34 2.32 21 3 C18.24921116 3.91692961 16.64051087 4.10886083 13.8125 4.0625 C11.9253125 4.0315625 11.9253125 4.0315625 10 4 C10.33 4.99 10.66 5.98 11 7 C15.62 7 20.24 7 25 7 C18.85090015 11.0993999 11.14435157 10.11627335 4 10 C4 9.34 4 8.68 4 8 C2.68 7.67 1.36 7.34 0 7 C-1.125 2.25 -1.125 2.25 0 0 Z " fill="#813FE8" transform="translate(24,91)"/>
<path d="M0 0 C1.15628906 0.23396484 1.15628906 0.23396484 2.3359375 0.47265625 C3.84027344 0.76462891 3.84027344 0.76462891 5.375 1.0625 C6.37273437 1.25972656 7.37046875 1.45695312 8.3984375 1.66015625 C10.97842539 2.24382952 10.97842539 2.24382952 13 1 C13 1.66 13 2.32 13 3 C14.32 3 15.64 3 17 3 C16.29535173 6.17091721 15.51700596 9.11768868 14 12 C11.375 13.3125 11.375 13.3125 9 14 C8 13 8 13 7.9375 9.9375 C7.9684375 8.4834375 7.9684375 8.4834375 8 7 C4.7 6.01 1.4 5.02 -2 4 C-1.34 2.68 -0.68 1.36 0 0 Z " fill="#BB45F2" transform="translate(71,89)"/>
<path d="M0 0 C2 1 2 1 3 2 C3.53548344 5.09590427 3.96573602 8.20121132 4.40234375 11.3125 C4.59957031 12.199375 4.79679687 13.08625 5 14 C5.66 14.33 6.32 14.66 7 15 C7.484375 16.77734375 7.484375 16.77734375 7.75 18.9375 C7.89695312 20.00291016 7.89695312 20.00291016 8.046875 21.08984375 C8 23 8 23 6 25 C4 23.25 4 23.25 2 21 C2 19.68 2 18.36 2 17 C1.34 17 0.68 17 0 17 C-1.75163456 13.22777911 -2.22490027 10.333361 -2.125 6.1875 C-2.10695313 5.21167969 -2.08890625 4.23585938 -2.0703125 3.23046875 C-2.04710938 2.49441406 -2.02390625 1.75835937 -2 1 C-1.34 0.67 -0.68 0.34 0 0 Z " fill="#3E2AF9" transform="translate(21,35)"/>
<path d="M0 0 C3.07084436 3.07084436 2.94450919 5.51643719 3.4375 9.8125 C3.35721152 14.11596275 1.86031362 16.48125324 -1.10546875 19.5234375 C-7.21547196 24.28546062 -14.53919936 24.57190806 -22 24 C-25.125 23.5 -25.125 23.5 -27 23 C-27 22.67 -27 22.34 -27 22 C-20.78675502 21.26969092 -15.15901243 20.76819751 -9 22 C-9.66 20.02 -10.32 18.04 -11 16 C-10.195625 15.71125 -9.39125 15.4225 -8.5625 15.125 C-5.8673532 14.26737432 -5.8673532 14.26737432 -5 12 C-4.34 12 -3.68 12 -3 12 C-3 12.99 -3 13.98 -3 15 C-4.65 15.66 -6.3 16.32 -8 17 C-8 17.66 -8 18.32 -8 19 C-4.71119444 17.86947309 -2.30299049 16.64136848 0 14 C0.7286245 9.26929831 0.46286541 4.75079916 0 0 Z " fill="#C454D0" transform="translate(114,77)"/>
<path d="M0 0 C2 3 2 3 1.8125 6.0625 C1 9 1 9 -2 11 C-5.1875 10.625 -5.1875 10.625 -8 10 C-10.20100503 4.61976549 -10.20100503 4.61976549 -9.25 1.6875 C-6.60285186 -1.88614998 -3.9791244 -0.9947811 0 0 Z " fill="#4533E0" transform="translate(42,35)"/>
<path d="M0 0 C4.31180732 0.48405436 6.0589554 1.62004866 8.8125 4.9375 C9.41707031 5.64777344 10.02164063 6.35804687 10.64453125 7.08984375 C12 9 12 9 12 11 C11.34 11 10.68 11 10 11 C10 13.64 10 16.28 10 19 C8.66014102 17.33857487 7.32917292 15.66998649 6 14 C5.38640625 13.28714844 4.7728125 12.57429688 4.140625 11.83984375 C3.49609375 11.06769531 2.8515625 10.29554687 2.1875 9.5 C1.24970703 8.40171875 1.24970703 8.40171875 0.29296875 7.28125 C-1 5 -1 5 -0.69921875 2.21875 C-0.46847656 1.4865625 -0.23773438 0.754375 0 0 Z " fill="#B851DF" transform="translate(99,61)"/>
<path d="M0 0 C0.639375 0.474375 1.27875 0.94875 1.9375 1.4375 C1.2775 3.0875 0.6175 4.7375 -0.0625 6.4375 C-0.3925 5.7775 -0.7225 5.1175 -1.0625 4.4375 C-2.3825 4.4375 -3.7025 4.4375 -5.0625 4.4375 C-5.0625 3.7775 -5.0625 3.1175 -5.0625 2.4375 C-10.0125 2.7675 -14.9625 3.0975 -20.0625 3.4375 C-19.7325 2.1175 -19.4025 0.7975 -19.0625 -0.5625 C-12.38602127 -2.97739656 -6.45357767 -3.29264167 0 0 Z " fill="#A743F1" transform="translate(109.0625,30.5625)"/>
<path d="M0 0 C-0.54390372 3.34112285 -1.2358748 5.4109234 -3.9609375 7.51171875 C-8.16393197 9.94833847 -11.06331711 11.29707472 -16 11 C-16.33 10.34 -16.66 9.68 -17 9 C-13.99263074 5.64562659 -11.02023435 3.9654479 -7 2 C-6.67 1.34 -6.34 0.68 -6 0 C-3 -1 -3 -1 0 0 Z " fill="#813CFD" transform="translate(85,30)"/>
<path d="M0 0 C0.1875 2.3125 0.1875 2.3125 0 5 C-0.49628906 5.43699219 -0.99257813 5.87398438 -1.50390625 6.32421875 C-3.63324075 8.70929577 -3.2683549 10.36305751 -3.125 13.5 C-2.9919248 16.80026498 -2.94617613 18.8385284 -4 22 C-4.66 22 -5.32 22 -6 22 C-6 20.68 -6 19.36 -6 18 C-6.66 18 -7.32 18 -8 18 C-8 14.7 -8 11.4 -8 8 C-7.34 8 -6.68 8 -6 8 C-6.0825 7.236875 -6.165 6.47375 -6.25 5.6875 C-6 3 -6 3 -4.125 1.1875 C-2 0 -2 0 0 0 Z " fill="#6937FB" transform="translate(25,73)"/>
<path d="M0 0 C0.66 0.66 1.32 1.32 2 2 C1.67 2.99 1.34 3.98 1 5 C3.2236068 6.2981424 3.2236068 6.2981424 7 6 C7 6.66 7 7.32 7 8 C4.90049414 8.86555948 2.7952093 9.71711277 0.6875 10.5625 C-1.07013672 11.27599609 -1.07013672 11.27599609 -2.86328125 12.00390625 C-6 13 -6 13 -9 12 C-7.02 10.68 -5.04 9.36 -3 8 C-6.24926122 5.83382585 -6.5985242 5.78664331 -10.1875 6.375 C-12.0746875 6.684375 -12.0746875 6.684375 -14 7 C-10.81237635 4.87491756 -8.73487777 4.4979837 -5 4 C-5 3.34 -5 2.68 -5 2 C-4.34 2 -3.68 2 -3 2 C-3 2.66 -3 3.32 -3 4 C-2.34 3.67 -1.68 3.34 -1 3 C-0.67 2.01 -0.34 1.02 0 0 Z " fill="#9043E0" transform="translate(60,85)"/>
<path d="M0 0 C0.66 0.33 1.32 0.66 2 1 C2 3.64 2 6.28 2 9 C2.66 9 3.32 9 4 9 C4 11.31 4 13.62 4 16 C3.01 16 2.02 16 1 16 C1 16.99 1 17.98 1 19 C0.34 19 -0.32 19 -1 19 C-1.22237877 16.58388467 -1.42832339 14.1682283 -1.625 11.75 C-1.72167969 10.72712891 -1.72167969 10.72712891 -1.8203125 9.68359375 C-2.11594735 5.8772951 -2.17561392 3.22190154 0 0 Z " fill="#A03FF8" transform="translate(87,45)"/>
<path d="M0 0 C2.625 2 2.625 2 4 4 C1.03 3.01 -1.94 2.02 -5 1 C-5 2.32 -5 3.64 -5 5 C-1.535 6.98 -1.535 6.98 2 9 C2 9.66 2 10.32 2 11 C2.66 11 3.32 11 4 11 C3.67 12.32 3.34 13.64 3 15 C1.9790625 13.5459375 1.9790625 13.5459375 0.9375 12.0625 C-1.39110695 9.2186553 -1.95270592 9.01085438 -5.8125 8.125 C-6.864375 8.08375 -7.91625 8.0425 -9 8 C-9.28875 7.195625 -9.5775 6.39125 -9.875 5.5625 C-10.73262568 2.8673532 -10.73262568 2.8673532 -13 2 C-8.7863742 -0.80908387 -4.95250658 -0.69707949 0 0 Z " fill="#593FD7" transform="translate(71,10)"/>
<path d="M0 0 C1.75 0.0625 1.75 0.0625 4 1 C5.72518887 3.25123006 6.76906007 5.40134903 8 8 C7.67 8.66 7.34 9.32 7 10 C6.01 9.67 5.02 9.34 4 9 C4 9.99 4 10.98 4 12 C4.66 12 5.32 12 6 12 C5.67 13.32 5.34 14.64 5 16 C-1.26865672 7.01492537 -1.26865672 7.01492537 -0.625 2.1875 C-0.41875 1.465625 -0.2125 0.74375 0 0 Z " fill="#9045E2" transform="translate(49,99)"/>
<path d="M0 0 C2.5 -0.3125 2.5 -0.3125 5 0 C7 2 7 2 7.25 4.5 C7 7 7 7 5 9 C1.875 8.625 1.875 8.625 -1 8 C-1.625 5.6875 -1.625 5.6875 -2 3 C-1.34 2.01 -0.68 1.02 0 0 Z " fill="#9D55CD" transform="translate(96,41)"/>
<path d="M0 0 C1.65 0 3.3 0 5 0 C4.01 0.495 4.01 0.495 3 1 C3.33 1.99 3.66 2.98 4 4 C1 6 1 6 -2 6 C-2 7.32 -2 8.64 -2 10 C-3.32 10 -4.64 10 -6 10 C-6 9.34 -6 8.68 -6 8 C-6.99 7.67 -7.98 7.34 -9 7 C-6.75 4.5 -6.75 4.5 -4 2 C-2.68 2 -1.36 2 0 2 C0 1.34 0 0.68 0 0 Z " fill="#5833F8" transform="translate(49,47)"/>
<path d="M0 0 C2.31 0 4.62 0 7 0 C8.125 3.75 8.125 3.75 7 6 C5.33333333 6.33333333 3.66666667 6.66666667 2 7 C1.67 7.66 1.34 8.32 1 9 C-0.65 8.67 -2.3 8.34 -4 8 C-2.66666667 5.33333333 -1.33333333 2.66666667 0 0 Z " fill="#5D34FB" transform="translate(29,62)"/>
<path d="M0 0 C3.03852705 1.40976705 5.5939595 3.08870228 8.25 5.125 C8.95640625 5.66382812 9.6628125 6.20265625 10.390625 6.7578125 C10.92171875 7.16773437 11.4528125 7.57765625 12 8 C10 9 10 9 7 9 C6.94729537 10.36893239 6.94729537 10.36893239 8 13 C8.66 13.33 9.32 13.66 10 14 C10.66 14.33 11.32 14.66 12 15 C12.33 15.99 12.66 16.98 13 18 C9.16336928 16.65070536 6.34827431 14.92248975 3.1875 12.375 C2.39730469 11.74335937 1.60710938 11.11171875 0.79296875 10.4609375 C-0.09455078 9.73777344 -0.09455078 9.73777344 -1 9 C0.32 8.67 1.64 8.34 3 8 C3 6.68 3 5.36 3 4 C2.01 3.34 1.02 2.68 0 2 C0 1.34 0 0.68 0 0 Z " fill="#7A47DC" transform="translate(42,69)"/>
<path d="M0 0 C3 3.75 3 3.75 3 6 C-1.95 6 -6.9 6 -12 6 C-12 4.68 -12 3.36 -12 2 C-8.04 2 -4.08 2 0 2 C0 1.34 0 0.68 0 0 Z " fill="#CD47E9" transform="translate(102,93)"/>
<path d="M0 0 C0.33 0.66 0.66 1.32 1 2 C1.66 2 2.32 2 3 2 C2.45276317 5.37462715 1.9451 7.08235 0 10 C0 11.32 0 12.64 0 14 C-1.32 13.67 -2.64 13.34 -4 13 C-3.67 12.01 -3.34 11.02 -3 10 C-2.96079185 8.00038436 -2.95556653 5.99950636 -3 4 C-3.66 3.67 -4.32 3.34 -5 3 C-3.35 2.01 -1.7 1.02 0 0 Z " fill="#B943F2" transform="translate(88,76)"/>
<path d="M0 0 C1.98 0.66 3.96 1.32 6 2 C6 2.99 6 3.98 6 5 C6.66 5.33 7.32 5.66 8 6 C8 6.66 8 7.32 8 8 C8.66 8.33 9.32 8.66 10 9 C9.34 10.32 8.68 11.64 8 13 C8 12.34 8 11.68 8 11 C7.01 10.67 6.02 10.34 5 10 C5 9.34 5 8.68 5 8 C2.525 7.01 2.525 7.01 0 6 C0 5.01 0 4.02 0 3 C-0.66 3 -1.32 3 -2 3 C-1 1 -1 1 0 0 Z " fill="#8C3CF9" transform="translate(49,76)"/>
<path d="M0 0 C0.66 0.33 1.32 0.66 2 1 C1.01 2.485 1.01 2.485 0 4 C0.66 4.33 1.32 4.66 2 5 C2 5.66 2 6.32 2 7 C2.99 7.33 3.98 7.66 5 8 C2.69 9.65 0.38 11.3 -2 13 C-3 11 -3 11 -3 8 C-4.32 7.67 -5.64 7.34 -7 7 C-4.69 4.69 -2.38 2.38 0 0 Z " fill="#583ADB" transform="translate(41,50)"/>
<path d="M0 0 C3.3063908 0.55106513 6.19982126 1.09987871 9 3 C9.75 5.125 9.75 5.125 10 7 C7.39517051 7.94721072 5.69325299 8.30222393 3.109375 7.17578125 C1.37417127 6.17063275 -0.31640423 5.0893855 -2 4 C-1.34 2.68 -0.68 1.36 0 0 Z " fill="#6136F9" transform="translate(66,11)"/>
<path d="M0 0 C0.33 0.66 0.66 1.32 1 2 C0.67 2.66 0.34 3.32 0 4 C-0.07181821 6.71760108 -0.09299506 9.40859388 -0.0625 12.125 C-0.05798828 12.87910156 -0.05347656 13.63320312 -0.04882812 14.41015625 C-0.03703499 16.27347127 -0.01909942 18.13674555 0 20 C1.32 20.66 2.64 21.32 4 22 C-1.56 21.51652174 -1.56 21.51652174 -3.4375 19.3125 C-4.17862264 16.26566247 -3.58186503 14.08388465 -3 11 C-3.03176743 8.6452396 -3.12187014 6.30412814 -3.2578125 3.953125 C-3.17273438 3.30859375 -3.08765625 2.6640625 -3 2 C-2.01 1.34 -1.02 0.68 0 0 Z " fill="#703CE7" transform="translate(24,78)"/>
<path d="M0 0 C1.33332095 2.6666419 0.67102033 4.16680303 0 7 C-0.66 7 -1.32 7 -2 7 C-2 10.3 -2 13.6 -2 17 C-1.34 17 -0.68 17 0 17 C0.309375 17.78375 0.61875 18.5675 0.9375 19.375 C1.92875038 21.92330128 1.92875038 21.92330128 3 24 C0.06423721 22.987668 -0.97512741 22.03642058 -2.75 19.4375 C-4.54457204 14.50242689 -5.19292162 9.81963292 -3.09765625 4.8671875 C-2.1468106 3.19559407 -1.08230603 1.58963697 0 0 Z " fill="#5C3ECC" transform="translate(19,74)"/>
<path d="M0 0 C0 1.65 0 3.3 0 5 C-5.28 5 -10.56 5 -16 5 C-16 4.34 -16 3.68 -16 3 C-12.06823718 1.48090982 -10.012232 0.96458529 -6 2 C-0.26666667 0 -0.26666667 0 0 0 Z " fill="#382BF4" transform="translate(42,26)"/>
<path d="M0 0 C5.8525557 5.70249017 5.8525557 5.70249017 6.3125 9.75 C5.92005677 13.83140958 4.56651766 15.84684973 2 19 C1.01 19.33 0.02 19.66 -1 20 C-1 19.01 -1 18.02 -1 17 C-0.34 17 0.32 17 1 17 C1 16.01 1 15.02 1 14 C1.99 14 2.98 14 4 14 C3.52721339 9.17757659 2.6547801 6.03988276 0 2 C0 1.34 0 0.68 0 0 Z " fill="#8F52D7" transform="translate(72,55)"/>
<path d="M0 0 C0.99 0.33 1.98 0.66 3 1 C3.9765625 7.0546875 3.9765625 7.0546875 4 9 C3.34 9.66 2.68 10.32 2 11 C-1.89847716 7.7106599 -1.89847716 7.7106599 -2.375 4.375 C-2 2 -2 2 0 0 Z " fill="#482FF5" transform="translate(25,49)"/>
<path d="M0 0 C1.46015291 0.28241641 2.91809793 0.57626614 4.375 0.875 C5.18710938 1.03742188 5.99921875 1.19984375 6.8359375 1.3671875 C9 2 9 2 11 4 C5.85910687 5.85072153 3.04468729 6.21474076 -2 4 C-1.34 2.68 -0.68 1.36 0 0 Z " fill="#AC44F4" transform="translate(71,89)"/>
<path d="M0 0 C2 3 2 3 2 7 C-0.5 8.75 -0.5 8.75 -3 10 C-3.99 9.01 -4.98 8.02 -6 7 C-4.19587357 3.73539027 -3.16605307 2.11070205 0 0 Z " fill="#4D37E1" transform="translate(60,12)"/>
<path d="M0 0 C0.99 0.495 0.99 0.495 2 1 C3.52148326 1.08372659 5.04655778 1.10730027 6.5703125 1.09765625 C7.91416016 1.09282227 7.91416016 1.09282227 9.28515625 1.08789062 C10.69087891 1.07532227 10.69087891 1.07532227 12.125 1.0625 C13.54232422 1.05573242 13.54232422 1.05573242 14.98828125 1.04882812 C17.32558387 1.03702357 19.66276061 1.02055759 22 1 C21.67 1.66 21.34 2.32 21 3 C17.44709436 4.18430188 14.19749544 4.18397858 10.5 4.1875 C9.48486328 4.20586914 9.48486328 4.20586914 8.44921875 4.22460938 C4.73642956 4.23559396 3.17016924 4.11344616 0 2 C0 1.34 0 0.68 0 0 Z " fill="#7C45D2" transform="translate(24,91)"/>
<path d="M0 0 C4.875 4.625 4.875 4.625 6 8 C5.34 8 4.68 8 4 8 C4 10.64 4 13.28 4 16 C1.3513141 12.80331012 -0.93992341 9.60513403 -3 6 C-1.68 5.67 -0.36 5.34 1 5 C0.67 3.35 0.34 1.7 0 0 Z " fill="#B754D2" transform="translate(105,64)"/>
<path d="M0 0 C0.99 0 1.98 0 3 0 C3.3125 2.75 3.3125 2.75 3 6 C0.27061743 8.80519876 -2.10476671 10.4229284 -6 11 C-6 10.34 -6 9.68 -6 9 C-4.35 8.34 -2.7 7.68 -1 7 C-1 6.01 -1 5.02 -1 4 C-1.66 3.67 -2.32 3.34 -3 3 C-2.34 3 -1.68 3 -1 3 C-0.67 2.01 -0.34 1.02 0 0 Z " fill="#D949E7" transform="translate(112,85)"/>
<path d="M0 0 C0.66 0.33 1.32 0.66 2 1 C-3.57973647 4.84381845 -7.13032258 6.58217605 -14 6 C-17.4375 4 -17.4375 4 -20 2 C-19.34 1.67 -18.68 1.34 -18 1 C-17.41347656 1.31453125 -16.82695313 1.6290625 -16.22265625 1.953125 C-13.38412121 3.29007999 -11.53894749 3.07069389 -8.4375 2.75 C-7.48746094 2.66234375 -6.53742188 2.5746875 -5.55859375 2.484375 C-2.77067741 2.12896597 -2.77067741 2.12896597 0 0 Z " fill="#A058CE" transform="translate(75,114)"/>
<path d="M0 0 C3.16115776 1.36983503 3.9927092 1.9890638 6 5 C6.6300298 10.90189682 6.37705775 16.50305396 4 22 C2.94711127 18.61455779 2.99036978 15.65231173 3.125 12.125 C3.18605766 7.13048339 2.76087412 4.14131118 0 0 Z " fill="#B25ED4" transform="translate(109,30)"/>
<path d="M0 0 C0.825 0.309375 1.65 0.61875 2.5 0.9375 C6.39126155 2.11877583 9.96166953 2.58224168 14 3 C14 3.33 14 3.66 14 4 C10.04 4 6.08 4 2 4 C2 5.32 2 6.64 2 8 C0.68 8.33 -0.64 8.66 -2 9 C-2.33 8.01 -2.66 7.02 -3 6 C-2.34 5.34 -1.68 4.68 -1 4 C-0.3574765 1.93125966 -0.3574765 1.93125966 0 0 Z " fill="#B94FDB" transform="translate(88,91)"/>
<path d="M0 0 C0.33 0 0.66 0 1 0 C1.33 1.98 1.66 3.96 2 6 C1.34 6 0.68 6 0 6 C-0.33 7.65 -0.66 9.3 -1 11 C-2.32 11.33 -3.64 11.66 -5 12 C-5.33 11.01 -5.66 10.02 -6 9 C-4.7934375 7.88625 -4.7934375 7.88625 -3.5625 6.75 C-1.23011409 4.24695171 -0.36465606 3.2819045 0 0 Z " fill="#BE43F4" transform="translate(76,104)"/>
<path d="M0 0 C0.66 0.33 1.32 0.66 2 1 C1.13375 1.50660156 1.13375 1.50660156 0.25 2.0234375 C-0.4925 2.46945313 -1.235 2.91546875 -2 3.375 C-2.7425 3.81585938 -3.485 4.25671875 -4.25 4.7109375 C-5.11625 5.34902344 -5.11625 5.34902344 -6 6 C-6 6.66 -6 7.32 -6 8 C-8.64 8 -11.28 8 -14 8 C-11.52010087 5.14181117 -8.86353122 3.80106607 -5.4375 2.25 C-4.46683594 1.80140625 -3.49617188 1.3528125 -2.49609375 0.890625 C-1.67238281 0.59671875 -0.84867188 0.3028125 0 0 Z " fill="#6440D6" transform="translate(69,34)"/>
<path d="M0 0 C7.92 3.96 7.92 3.96 16 8 C16 8.66 16 9.32 16 10 C14.58208592 9.54554036 13.16571954 9.08625056 11.75 8.625 C10.96109375 8.36976562 10.1721875 8.11453125 9.359375 7.8515625 C7.13372042 7.04826333 5.09068328 6.10288338 3 5 C3 4.34 3 3.68 3 3 C2.01 2.67 1.02 2.34 0 2 C0 1.34 0 0.68 0 0 Z " fill="#8A4AD7" transform="translate(55,78)"/>
<path d="M0 0 C1.65 0 3.3 0 5 0 C5.33 1.32 5.66 2.64 6 4 C8.64 4.33 11.28 4.66 14 5 C14 5.33 14 5.66 14 6 C8.06 6.495 8.06 6.495 2 7 C2 5.68 2 4.36 2 3 C1.34 3 0.68 3 0 3 C0 2.01 0 1.02 0 0 Z " fill="#A640F0" transform="translate(53,108)"/>
<path d="M0 0 C0 1.32 0 2.64 0 4 C-3.3 4.33 -6.6 4.66 -10 5 C-9.67 3.68 -9.34 2.36 -9 1 C-5.92677456 0.08941469 -3.19902639 -0.08886184 0 0 Z " fill="#9840FA" transform="translate(99,29)"/>
<path d="M0 0 C0.33 0.66 0.66 1.32 1 2 C0.01 2.495 0.01 2.495 -1 3 C-1.65555119 5.52733235 -1.65555119 5.52733235 -2 8 C-3.65 8 -5.3 8 -7 8 C-7.33 7.34 -7.66 6.68 -8 6 C-5.51047079 3.33264727 -3.36591866 1.44253657 0 0 Z " fill="#753AF9" transform="translate(76,33)"/>
<path d="M0 0 C1.76923828 0.01353516 1.76923828 0.01353516 3.57421875 0.02734375 C4.47785156 0.03894531 5.38148437 0.05054688 6.3125 0.0625 C6.3125 0.7225 6.3125 1.3825 6.3125 2.0625 C-1.6075 2.5575 -1.6075 2.5575 -9.6875 3.0625 C-9.6875 2.4025 -9.6875 1.7425 -9.6875 1.0625 C-6.26517028 -0.07827657 -3.60076783 -0.03565117 0 0 Z " fill="#904DD4" transform="translate(97.6875,32.9375)"/>
<path d="M0 0 C2.475 0.495 2.475 0.495 5 1 C5 2.98 5 4.96 5 7 C3.68 7 2.36 7 1 7 C0.67 4.69 0.34 2.38 0 0 Z " fill="#AD45EE" transform="translate(96,43)"/>
<path d="M0 0 C2 1 2 1 3 2 C3.04092937 4.33297433 3.04241723 6.66705225 3 9 C2.34 7.68 1.68 6.36 1 5 C0.01 8.465 0.01 8.465 -1 12 C-1.33 12 -1.66 12 -2 12 C-2 8.37 -2 4.74 -2 1 C-1.34 0.67 -0.68 0.34 0 0 Z " fill="#342AEE" transform="translate(21,35)"/>
<path d="M0 0 C0 0.33 0 0.66 0 1 C-6.35337785 2.69423409 -13.64662215 2.69423409 -20 1 C-20 0.67 -20 0.34 -20 0 C-13.14011227 -0.94870788 -6.85988773 -0.94870788 0 0 Z " fill="#B356C7" transform="translate(107,99)"/>
<path d="M0 0 C3.03774488 3.03774488 3.08204651 5.90183389 3.25 10.0625 C3 14 3 14 0 17 C0 11.39 0 5.78 0 0 Z " fill="#C263C8" transform="translate(114,77)"/>
<path d="M0 0 C1.26305335 5.07476794 2.27036084 9.72796354 2 15 C1.67 15 1.34 15 1 15 C0.34 11.04 -0.32 7.08 -1 3 C-3.31 3.66 -5.62 4.32 -8 5 C-3.22727273 0 -3.22727273 0 0 0 Z " fill="#7F48D4" transform="translate(82,36)"/>
<path d="M0 0 C0.33 0 0.66 0 1 0 C1 1.98 1 3.96 1 6 C1.66 6 2.32 6 3 6 C2.67 4.35 2.34 2.7 2 1 C3.32 1 4.64 1 6 1 C4.375 6.75 4.375 6.75 1 9 C0.34 8.67 -0.32 8.34 -1 8 C-0.67 5.36 -0.34 2.72 0 0 Z " fill="#4D3CCD" transform="translate(48,26)"/>
<path d="M0 0 C-0.33 0.66 -0.66 1.32 -1 2 C-2.01320313 1.96519531 -2.01320313 1.96519531 -3.046875 1.9296875 C-3.93890625 1.91164062 -4.8309375 1.89359375 -5.75 1.875 C-6.63171875 1.85179687 -7.5134375 1.82859375 -8.421875 1.8046875 C-11.1135858 2.00860498 -12.69904974 2.63448279 -15 4 C-11.65260197 -0.66244726 -11.65260197 -0.66244726 -9.1875 -1.9375 C-5.90584763 -2.0312615 -3.09520029 -1.0118924 0 0 Z " fill="#6F45DA" transform="translate(72,55)"/>
<path d="M0 0 C-0.66 1.65 -1.32 3.3 -2 5 C-3.32 5 -4.64 5 -6 5 C-6 5.66 -6 6.32 -6 7 C-7.98 7.33 -9.96 7.66 -12 8 C-4.57142857 0 -4.57142857 0 0 0 Z " fill="#573CD2" transform="translate(55,42)"/>
<path d="M0 0 C-2.42115191 2.42115191 -3.64160525 2.60948898 -7 3 C-9.5625 2.625 -9.5625 2.625 -12 2 C-13.33319088 1.66609738 -14.66650099 1.33266994 -16 1 C-10.10106757 -0.79074734 -6.06820868 -1.08360869 0 0 Z " fill="#4737D9" transform="translate(41,26)"/>
<path d="M0 0 C0.33 0.66 0.66 1.32 1 2 C-0.109375 4.3125 -0.109375 4.3125 -1.75 7 C-2.28109375 7.886875 -2.8121875 8.77375 -3.359375 9.6875 C-5 12 -5 12 -8 14 C-8 13.01 -8 12.02 -8 11 C-7.34 11 -6.68 11 -6 11 C-5.34 8.69 -4.68 6.38 -4 4 C-3.34 4 -2.68 4 -2 4 C-1.34 2.68 -0.68 1.36 0 0 Z " fill="#AD55D2" transform="translate(85,100)"/>
<path d="M0 0 C1.98 0.495 1.98 0.495 4 1 C4 2.65 4 4.3 4 6 C2.35 6.33 0.7 6.66 -1 7 C-0.67 4.69 -0.34 2.38 0 0 Z " fill="#963DFB" transform="translate(72,61)"/>
<path d="M0 0 C0.33 0.66 0.66 1.32 1 2 C1.99 2 2.98 2 4 2 C4 1.34 4 0.68 4 0 C4.66 0.33 5.32 0.66 6 1 C4.68 2.65 3.36 4.3 2 6 C0.68 5.67 -0.64 5.34 -2 5 C-1.125 1.125 -1.125 1.125 0 0 Z " fill="#B154CE" transform="translate(105,54)"/>
<path d="M0 0 C0.33 0.66 0.66 1.32 1 2 C0.67 2.66 0.34 3.32 0 4 C-0.06950541 5.54023996 -0.08452357 7.08334988 -0.0625 8.625 C-0.05347656 9.44226563 -0.04445313 10.25953125 -0.03515625 11.1015625 C-0.02355469 11.72804688 -0.01195312 12.35453125 0 13 C-0.99 12.34 -1.98 11.68 -3 11 C-3.3984375 8.90625 -3.3984375 8.90625 -3.375 6.5 C-3.38273437 5.7059375 -3.39046875 4.911875 -3.3984375 4.09375 C-3.26695313 3.4028125 -3.13546875 2.711875 -3 2 C-2.01 1.34 -1.02 0.68 0 0 Z " fill="#623ED4" transform="translate(24,78)"/>
<path d="M0 0 C1.32 0.33 2.64 0.66 4 1 C4 4.96 4 8.92 4 13 C3.67 13 3.34 13 3 13 C2.9175 11.741875 2.835 10.48375 2.75 9.1875 C2.33442857 5.66188788 2.33442857 5.66188788 -0.0625 3 C-0.701875 2.67 -1.34125 2.34 -2 2 C-1.34 2 -0.68 2 0 2 C0 1.34 0 0.68 0 0 Z " fill="#9545EB" transform="translate(86,41)"/>
<path d="M0 0 C0.99 0.33 1.98 0.66 3 1 C2.6875 2.9375 2.6875 2.9375 2 5 C1.01 5.33 0.02 5.66 -1 6 C-1 7.32 -1 8.64 -1 10 C-1.66 10 -2.32 10 -3 10 C-3 8.02 -3 6.04 -3 4 C-2.34 3.67 -1.68 3.34 -1 3 C-0.67 2.01 -0.34 1.02 0 0 Z " fill="#4A30F7" transform="translate(52,22)"/>
<path d="M0 0 C0.33 0 0.66 0 1 0 C1 2.31 1 4.62 1 7 C1.66 7.33 2.32 7.66 3 8 C2.34 9.32 1.68 10.64 1 12 C-1.09440189 8.59659693 -1.25797575 5.95562822 -1 2 C-0.67 1.34 -0.34 0.68 0 0 Z " fill="#754AD3" transform="translate(56,60)"/>
<path d="M0 0 C0.66 0.99 1.32 1.98 2 3 C1.67 3.66 1.34 4.32 1 5 C-2.0625 5.625 -2.0625 5.625 -5 6 C-3.63016497 2.83884224 -3.0109362 2.0072908 0 0 Z " fill="#4A2FF9" transform="translate(60,12)"/>
<path d="M0 0 C1.98 0.66 3.96 1.32 6 2 C4.71034824 3.37562854 3.37310707 4.70766393 2 6 C1.34 6 0.68 6 0 6 C0 5.01 0 4.02 0 3 C-0.66 3 -1.32 3 -2 3 C-1 1 -1 1 0 0 Z " fill="#7F3BF6" transform="translate(49,76)"/>
<path d="M0 0 C4.8 3.44615385 4.8 3.44615385 5.8125 6.25 C5.874375 6.8275 5.93625 7.405 6 8 C4.125 7.375 4.125 7.375 2 6 C0.75 2.875 0.75 2.875 0 0 Z " fill="#6541DA" transform="translate(75,14)"/>
<path d="M0 0 C1 2 1 2 0.3125 4.5 C-1.18699812 7.3561869 -2.14125979 7.7423872 -5 9 C-4.3566152 7.686298 -3.71021785 6.37407102 -3.0625 5.0625 C-2.70285156 4.33160156 -2.34320313 3.60070312 -1.97265625 2.84765625 C-1 1 -1 1 0 0 Z " fill="#AF4AD4" transform="translate(76,102)"/>
<path d="M0 0 C2.0625 0.4375 2.0625 0.4375 4 1 C4 1.66 4 2.32 4 3 C3.34 3 2.68 3 2 3 C1.34 4.32 0.68 5.64 0 7 C-0.38133299 5.0085944 -0.71325582 3.00720923 -1 1 C-0.67 0.67 -0.34 0.34 0 0 Z " fill="#8148CB" transform="translate(49,99)"/>
<path d="M0 0 C1.32 0.33 2.64 0.66 4 1 C2.515 4.465 2.515 4.465 1 8 C0.67 8 0.34 8 0 8 C0 5.36 0 2.72 0 0 Z " fill="#A44CD9" transform="translate(84,70)"/>
<path d="M0 0 C0.99 0.33 1.98 0.66 3 1 C2.2884375 1.928125 2.2884375 1.928125 1.5625 2.875 C-0.02417441 4.90705546 -0.02417441 4.90705546 -1 7 C-2 6 -2 6 -2.0625 3.4375 C-2.041875 2.633125 -2.02125 1.82875 -2 1 C-1.34 0.67 -0.68 0.34 0 0 Z " fill="#6434FC" transform="translate(59,41)"/>
<path d="M0 0 C0.99 0.33 1.98 0.66 3 1 C4.125 3.4375 4.125 3.4375 5 6 C5.33 6.66 5.66 7.32 6 8 C2.83884224 6.63016497 2.0072908 6.0109362 0 3 C0 2.01 0 1.02 0 0 Z " fill="#6B45D1" transform="translate(16,90)"/>
<path d="M0 0 C0 0.66 0 1.32 0 2 C-4.625 4.125 -4.625 4.125 -8 3 C-4.93882432 0.37613513 -4.26826873 0 0 0 Z " fill="#8A46D6" transform="translate(67,91)"/>
<path d="M0 0 C1.32 0 2.64 0 4 0 C3.34 2.31 2.68 4.62 2 7 C0 5 0 5 -0.125 2.375 C-0.08375 1.59125 -0.0425 0.8075 0 0 Z " fill="#CF46E8" transform="translate(108,71)"/>
</svg>
